<!-- @license lucide-static v1.21.0 - ISC. Subset generated for the right-side control bar. -->
<svg xmlns="http://www.w3.org/2000/svg">
  <symbol id="sun" viewBox="0 0 24 24">
    <circle cx="12" cy="12" r="4" />
    <path d="M12 2v2" />
    <path d="M12 20v2" />
    <path d="m4.93 4.93 1.41 1.41" />
    <path d="m17.66 17.66 1.41 1.41" />
    <path d="M2 12h2" />
    <path d="M20 12h2" />
    <path d="m6.34 17.66-1.41 1.41" />
    <path d="m19.07 4.93-1.41 1.41" />
  </symbol>
  <symbol id="moon" viewBox="0 0 24 24">
    <path d="M20.985 12.486a9 9 0 1 1-9.473-9.472c.405-.022.617.46.402.803a6 6 0 0 0 8.268 8.268c.344-.215.825-.004.803.401" />
  </symbol>
  <symbol id="sparkles" viewBox="0 0 24 24">
    <path d="M11.017 2.814a1 1 0 0 1 1.966 0l1.051 5.558a2 2 0 0 0 1.594 1.594l5.558 1.051a1 1 0 0 1 0 1.966l-5.558 1.051a2 2 0 0 0-1.594 1.594l-1.051 5.558a1 1 0 0 1-1.966 0l-1.051-5.558a2 2 0 0 0-1.594-1.594l-5.558-1.051a1 1 0 0 1 0-1.966l5.558-1.051a2 2 0 0 0 1.594-1.594z" />
    <path d="M20 2v4" />
    <path d="M22 4h-4" />
    <circle cx="4" cy="20" r="2" />
  </symbol>
  <symbol id="rotate-cw" viewBox="0 0 24 24">
    <path d="M21 12a9 9 0 1 1-9-9c2.52 0 4.93 1 6.74 2.74L21 8" />
    <path d="M21 3v5h-5" />
  </symbol>
  <symbol id="repeat-2" viewBox="0 0 24 24">
    <path d="m2 9 3-3 3 3" />
    <path d="M13 18H7a2 2 0 0 1-2-2V6" />
    <path d="m22 15-3 3-3-3" />
    <path d="M11 6h6a2 2 0 0 1 2 2v10" />
  </symbol>
  <symbol id="pause" viewBox="0 0 24 24">
    <rect x="14" y="3" width="5" height="18" rx="1" />
    <rect x="5" y="3" width="5" height="18" rx="1" />
  </symbol>
  <symbol id="play" viewBox="0 0 24 24">
    <path d="M5 5a2 2 0 0 1 3.008-1.728l11.997 6.998a2 2 0 0 1 .003 3.458l-12 7A2 2 0 0 1 5 19z" />
  </symbol>
  <symbol id="volume-2" viewBox="0 0 24 24">
    <path d="M11 4.702a.705.705 0 0 0-1.203-.498L6.413 7.587A1.4 1.4 0 0 1 5.416 8H3a1 1 0 0 0-1 1v6a1 1 0 0 0 1 1h2.416a1.4 1.4 0 0 1 .997.413l3.383 3.384A.705.705 0 0 0 11 19.298z" />
    <path d="M16 9a5 5 0 0 1 0 6" />
    <path d="M19.364 18.364a9 9 0 0 0 0-12.728" />
  </symbol>
  <symbol id="mic" viewBox="0 0 24 24">
    <path d="M12 19v3" />
    <path d="M19 10v2a7 7 0 0 1-14 0v-2" />
    <rect x="9" y="2" width="6" height="13" rx="3" />
  </symbol>
  <symbol id="blend" viewBox="0 0 24 24">
    <circle cx="9" cy="9" r="7" />
    <circle cx="15" cy="15" r="7" />
  </symbol>
  <symbol id="sliders-horizontal" viewBox="0 0 24 24">
    <path d="M10 5H3" />
    <path d="M12 19H3" />
    <path d="M14 3v4" />
    <path d="M16 17v4" />
    <path d="M21 12h-9" />
    <path d="M21 19h-5" />
    <path d="M21 5h-7" />
    <path d="M8 10v4" />
    <path d="M8 12H3" />
  </symbol>
  <symbol id="subtitles" viewBox="0 0 24 24">
    <rect width="18" height="14" x="3" y="5" rx="2" ry="2" />
    <path d="M7 15h4M15 15h2M7 11h2M13 11h4" />
  </symbol>
  <symbol id="scissors" viewBox="0 0 24 24">
    <circle cx="6" cy="6" r="3" />
    <path d="M8.12 8.12 12 12" />
    <path d="M20 4 8.12 15.88" />
    <circle cx="6" cy="18" r="3" />
    <path d="M14.8 14.8 20 20" />
  </symbol>
  <symbol id="eye" viewBox="0 0 24 24">
    <path d="M2.062 12.348a1 1 0 0 1 0-.696 10.75 10.75 0 0 1 19.876 0 1 1 0 0 1 0 .696 10.75 10.75 0 0 1-19.876 0" />
    <circle cx="12" cy="12" r="3" />
  </symbol>
  <symbol id="languages" viewBox="0 0 24 24">
    <path d="m5 8 6 6" />
    <path d="m4 14 6-6 2-3" />
    <path d="M2 5h12" />
    <path d="M7 2h1" />
    <path d="m22 22-5-10-5 10" />
    <path d="M14 18h6" />
  </symbol>
  <symbol id="wand-sparkles" viewBox="0 0 24 24">
    <path d="m21.64 3.64-1.28-1.28a1.21 1.21 0 0 0-1.72 0L2.36 18.64a1.21 1.21 0 0 0 0 1.72l1.28 1.28a1.2 1.2 0 0 0 1.72 0L21.64 5.36a1.2 1.2 0 0 0 0-1.72" />
    <path d="m14 7 3 3" />
    <path d="M5 6v4" />
    <path d="M19 14v4" />
    <path d="M10 2v2" />
    <path d="M7 8H3" />
    <path d="M21 16h-4" />
    <path d="M11 3H9" />
  </symbol>
  <symbol id="bot" viewBox="0 0 24 24">
    <path d="M12 8V4H8" />
    <rect width="16" height="12" x="4" y="8" rx="2" />
    <path d="M2 14h2" />
    <path d="M20 14h2" />
    <path d="M15 13v2" />
    <path d="M9 13v2" />
  </symbol>
  <symbol id="send-horizontal" viewBox="0 0 24 24">
    <path d="M3.714 3.048a.498.498 0 0 0-.683.627l2.843 7.627a2 2 0 0 1 0 1.396l-2.842 7.627a.498.498 0 0 0 .682.627l18-8.5a.5.5 0 0 0 0-.904z" />
    <path d="M6 12h16" />
  </symbol>
  <symbol id="arrow-up-from-line" viewBox="0 0 24 24">
    <path d="m18 9-6-6-6 6" />
    <path d="M12 3v14" />
    <path d="M5 21h14" />
  </symbol>
  <symbol id="arrow-down-to-line" viewBox="0 0 24 24">
    <path d="M12 17V3" />
    <path d="m6 11 6 6 6-6" />
    <path d="M19 21H5" />
  </symbol>
  <symbol id="settings" viewBox="0 0 24 24">
    <path d="M9.671 4.136a2.34 2.34 0 0 1 4.659 0 2.34 2.34 0 0 0 3.319 1.915 2.34 2.34 0 0 1 2.33 4.033 2.34 2.34 0 0 0 0 3.831 2.34 2.34 0 0 1-2.33 4.033 2.34 2.34 0 0 0-3.319 1.915 2.34 2.34 0 0 1-4.659 0 2.34 2.34 0 0 0-3.32-1.915 2.34 2.34 0 0 1-2.33-4.033 2.34 2.34 0 0 0 0-3.831A2.34 2.34 0 0 1 6.35 6.051a2.34 2.34 0 0 0 3.319-1.915" />
    <circle cx="12" cy="12" r="3" />
  </symbol>
  <symbol id="link" viewBox="0 0 24 24">
    <path d="M10 13a5 5 0 0 0 7.54.54l3-3a5 5 0 0 0-7.07-7.07l-1.72 1.71" />
    <path d="M14 11a5 5 0 0 0-7.54-.54l-3 3a5 5 0 0 0 7.07 7.07l1.71-1.71" />
  </symbol>
  <symbol id="clipboard-paste" viewBox="0 0 24 24">
    <path d="M11 14h10" />
    <path d="m17 18 4-4-4-4" />
    <path d="M8 4H6a2 2 0 0 0-2 2v14a2 2 0 0 0 2 2h12a2 2 0 0 0 1.73-1" />
    <path d="M16 4h2a2 2 0 0 1 2 2v1" />
    <rect x="8" y="2" width="8" height="4" rx="1" />
  </symbol>
  <symbol id="layers-minus" viewBox="0 0 24 24">
    <path d="M12.83 2.18a2 2 0 0 0-1.66 0L2.6 6.08a1 1 0 0 0 0 1.83l8.58 3.91a2 2 0 0 0 .83.18 2 2 0 0 0 .83-.18l8.58-3.9a1 1 0 0 0 0-1.832z" />
    <path d="M16 17h6" />
    <path d="M2.003 11.995a1 1 0 0 0 .597.915l8.58 3.91a2 2 0 0 0 .83.18" />
    <path d="M2.003 16.995a1 1 0 0 0 .597.915l8.58 3.91a2 2 0 0 0 .83.18 2 2 0 0 0 .83-.18l2.11-.96" />
    <path d="M22.018 12.004a1 1 0 0 1-.598.916l-.177.08" />
  </symbol>
  <symbol id="layers-plus" viewBox="0 0 24 24">
    <path d="M12.83 2.18a2 2 0 0 0-1.66 0L2.6 6.08a1 1 0 0 0 0 1.83l8.58 3.91a2 2 0 0 0 .83.18 2 2 0 0 0 .83-.18l8.58-3.9a1 1 0 0 0 0-1.831z" />
    <path d="M16 17h6" />
    <path d="M19 14v6" />
    <path d="M2 12a1 1 0 0 0 .58.91l8.6 3.91a2 2 0 0 0 .825.178" />
    <path d="M2 17a1 1 0 0 0 .58.91l8.6 3.91a2 2 0 0 0 1.65 0l2.116-.962" />
  </symbol>
  <symbol id="mouse-pointer-2" viewBox="0 0 24 24">
    <path d="M4.037 4.688a.495.495 0 0 1 .651-.651l16 6.5a.5.5 0 0 1-.063.947l-6.124 1.58a2 2 0 0 0-1.438 1.435l-1.579 6.126a.5.5 0 0 1-.947.063z" />
  </symbol>
  <symbol id="x" viewBox="0 0 24 24">
    <path d="M18 6 6 18" />
    <path d="m6 6 12 12" />
  </symbol>
</svg>
